<svg width="120" height="120" viewBox="0 0 120 120" fill="none" xmlns="http://www.w3.org/2000/svg">
<path d="M15 60H60V67.5H15V60Z" fill="#006400"/>
<path d="M7.5 41.25H45V48.75H7.5V41.25Z" fill="#006400"/>
<path d="M112.194 62.2725L100.944 36.0225C100.656 35.3478 100.175 34.7727 99.5625 34.3687C98.9498 33.9648 98.232 33.7496 97.4981 33.75H86.2481V26.25C86.2481 25.2554 85.853 24.3016 85.1497 23.5984C84.4465 22.8951 83.4927 22.5 82.4981 22.5H22.4981V30H78.7481V77.085C77.0393 78.0772 75.5439 79.3979 74.3481 80.9709C73.1522 82.5439 72.2796 84.3381 71.7806 86.25H48.2156C47.3029 82.715 45.1322 79.6343 42.1106 77.5852C39.0889 75.5362 35.4236 74.6595 31.8018 75.1196C28.18 75.5796 24.8503 77.3447 22.4369 80.0841C20.0234 82.8235 18.6919 86.3491 18.6919 90C18.6919 93.6509 20.0234 97.1765 22.4369 99.9159C24.8503 102.655 28.18 104.42 31.8018 104.88C35.4236 105.34 39.0889 104.464 42.1106 102.415C45.1322 100.366 47.3029 97.285 48.2156 93.75H71.7806C72.5963 96.9684 74.4619 99.8229 77.0822 101.862C79.7025 103.901 82.9279 105.008 86.2481 105.008C89.5683 105.008 92.7936 103.901 95.4139 101.862C98.0342 99.8229 99.8998 96.9684 100.716 93.75H108.748C109.743 93.75 110.696 93.3549 111.4 92.6517C112.103 91.9484 112.498 90.9946 112.498 90V63.75C112.498 63.242 112.395 62.7393 112.194 62.2725ZM33.7481 97.5C32.2647 97.5 30.8147 97.0601 29.5813 96.236C28.3479 95.4119 27.3866 94.2406 26.819 92.8701C26.2513 91.4997 26.1028 89.9917 26.3922 88.5368C26.6816 87.082 27.3959 85.7456 28.4448 84.6967C29.4937 83.6478 30.83 82.9335 32.2849 82.6441C33.7398 82.3547 35.2478 82.5032 36.6182 83.0709C37.9887 83.6386 39.16 84.5999 39.9841 85.8332C40.8082 87.0666 41.2481 88.5166 41.2481 90C41.2461 91.9885 40.4553 93.895 39.0492 95.3011C37.6431 96.7072 35.7366 97.498 33.7481 97.5ZM86.2481 41.25H95.0231L103.063 60H86.2481V41.25ZM86.2481 97.5C84.7647 97.5 83.3147 97.0601 82.0813 96.236C80.8479 95.4119 79.8867 94.2406 79.319 92.8701C78.7513 91.4997 78.6028 89.9917 78.8922 88.5368C79.1816 87.082 79.8959 85.7456 80.9448 84.6967C81.9937 83.6478 83.33 82.9335 84.7849 82.6441C86.2398 82.3547 87.7478 82.5032 89.1182 83.0709C90.4887 83.6386 91.66 84.5999 92.4841 85.8332C93.3082 87.0666 93.7481 88.5166 93.7481 90C93.7461 91.9885 92.9553 93.895 91.5492 95.3011C90.1431 96.7072 88.2366 97.498 86.2481 97.5ZM104.998 86.25H100.716C99.8895 83.0379 98.021 80.1907 95.4027 78.1547C92.7845 76.1188 89.5647 75.0092 86.2481 75V67.5H104.998V86.25Z" fill="#006400"/>
</svg>
