<svg width="15" height="16" viewBox="0 0 15 16" fill="none" xmlns="http://www.w3.org/2000/svg">
<path d="M13 9C12.631 9.36902 12 9.10767 12 8.58579C12 8.26227 11.7377 8 11.4142 8H8C7.44772 8 7 7.55228 7 7C7 6.44772 7.44772 6 8 6H11.4142C11.7377 6 12 5.73773 12 5.41421C12 4.89233 12.631 4.63098 13 5L14.1213 6.12132C14.6066 6.6066 14.6066 7.3934 14.1213 7.87868L13 9ZM10.5 9C10.7761 9 11 9.22386 11 9.5V11C11 12.1046 10.1046 13 9 13H7.1459C6.51304 13 6 13.513 6 14.1459C6 14.9977 5.10355 15.5518 4.34164 15.1708L1.65836 13.8292C0.642006 13.321 0 12.2822 0 11.1459V5.5C0 2.46243 2.46243 0 5.5 0H8.5C9.88071 0 11 1.11929 11 2.5V4.5C11 4.77614 10.7761 5 10.5 5C10.2239 5 10 4.77614 10 4.5V2.52786C10 1.68405 9.31595 1 8.47214 1H5.90274C4.93055 1 4.62116 2.31058 5.49071 2.74536C5.80284 2.90142 6 3.22043 6 3.5694V10C6 11.1046 6.89543 12 8 12H8.5C9.32843 12 10 11.3284 10 10.5V9.5C10 9.22386 10.2239 9 10.5 9Z" fill="#334D6E"/>
</svg>
