<svg width="305" height="305" viewBox="0 0 305 305" fill="none" xmlns="http://www.w3.org/2000/svg">
<g opacity="0.9">
<path d="M62.7396 39.1257H240.426V68.4582H62.7396V39.1257Z" fill="#424242"/>
<path d="M47.8711 120.809L66.8145 60.8093V39.1257H50.6113L13.0344 120.809H47.8711Z" fill="#424242"/>
<path d="M291.8 120.809L254.199 39.1257H238.019V60.8093L256.963 120.809H291.8Z" fill="#424242"/>
<path d="M220.625 145.566H84.5422C79.2762 145.566 75.0109 141.301 75.0109 136.035V26.616C75.0109 21.35 79.2762 17.0847 84.5422 17.0847H220.625C225.891 17.0847 230.156 21.35 230.156 26.616V136.035C230.156 141.301 225.891 145.566 220.625 145.566Z" fill="#F9A825"/>
<path d="M236.78 168.108H67.4332C62.1672 168.108 57.902 163.843 57.902 158.577V52.3031C57.902 47.0371 62.1672 42.7719 67.4332 42.7719H236.78C242.046 42.7719 246.311 47.0371 246.311 52.3031V158.577C246.311 163.843 242.022 168.108 236.78 168.108Z" fill="#FDD835"/>
<path d="M253.888 206.615H50.3009C45.0349 206.615 40.7697 202.349 40.7697 197.083V77.9905C40.7697 72.7245 45.0349 68.4592 50.3009 68.4592H253.912C259.178 68.4592 263.444 72.7245 263.444 77.9905V197.06C263.44 199.593 262.432 202.021 260.641 203.812C258.85 205.603 256.421 206.611 253.888 206.615Z" fill="url(#paint0_linear)"/>
<path d="M181.07 35.2898H139.895C135.939 35.2898 132.746 32.0968 132.746 28.1414V17.7523C132.746 13.7968 135.939 10.6039 139.895 10.6039H181.046C185.002 10.6039 188.195 13.7968 188.195 17.7523V28.1414C188.218 32.073 185.002 35.2898 181.07 35.2898Z" fill="#4480F7"/>
<path d="M103.581 63.36C97.6719 63.36 92.8586 58.5467 92.8586 52.6374V42.2483C92.8586 36.3389 97.6719 31.5256 103.581 31.5256H144.947C150.856 31.5256 155.67 36.3389 155.67 42.2483V52.6374C155.67 58.5467 150.856 63.36 144.947 63.36H103.581Z" fill="#2CA94F"/>
<path d="M144.947 35.0999C148.902 35.0999 152.095 38.2928 152.095 42.2483V52.6374C152.095 56.5928 148.902 59.7858 144.947 59.7858H103.581C99.6258 59.7858 96.4328 56.5928 96.4328 52.6374V42.2483C96.4328 38.2928 99.6258 35.0999 103.581 35.0999H144.947ZM144.947 27.9514H103.581C95.6941 27.9514 89.2844 34.3612 89.2844 42.2483V52.6374C89.2844 60.5245 95.6941 66.9342 103.581 66.9342H144.947C152.834 66.9342 159.244 60.5245 159.244 52.6374V42.2483C159.244 34.3612 152.834 27.9514 144.947 27.9514Z" fill="#FDD835"/>
<path d="M69.8881 88.0446C64.622 88.0446 60.3568 83.7793 60.3568 78.5133V68.1243C60.3568 62.8583 64.622 58.593 69.8881 58.593H113.208C118.474 58.593 122.739 62.8583 122.739 68.1243V78.5133C122.739 83.7793 118.474 88.0446 113.208 88.0446H69.8881Z" fill="#EC4431"/>
<path d="M113.184 60.9758C117.139 60.9758 120.332 64.1688 120.332 68.1243V78.5133C120.332 82.4688 117.139 85.6618 113.184 85.6618H69.8881C65.9326 85.6618 62.7396 82.4688 62.7396 78.5133V68.1243C62.7396 64.1688 65.9326 60.9758 69.8881 60.9758H113.184ZM113.184 56.2102H69.8881C63.3115 56.2102 57.974 61.5477 57.974 68.1243V78.5133C57.974 85.0899 63.3115 90.4274 69.8881 90.4274H113.184C119.76 90.4274 125.098 85.0899 125.098 78.5133V68.1243C125.098 61.5477 119.76 56.2102 113.184 56.2102Z" fill="#FFF59D"/>
<path d="M13.0344 120.809L29.2375 295.398H275.597L291.8 120.809" fill="url(#paint1_linear)"/>
<path opacity="0.2" d="M180.808 18.4202C181.07 18.4202 181.189 18.6346 181.213 18.8014C181.465 20.4977 182.319 22.0468 183.618 23.1664C184.917 24.2861 186.575 24.9018 188.29 24.9014H220.22C221.864 24.9014 223.198 26.2358 223.198 27.8799V39.8178C223.198 43.7733 226.391 46.9663 230.346 46.9663H249.814L284.698 122.74L269.258 288.941H35.909L20.4922 122.716L55.3766 46.9424H75.2016C79.1571 46.9424 82.35 43.7495 82.35 39.794V27.8799C82.35 26.2358 83.6844 24.9014 85.3285 24.9014H133.056C136.607 24.9014 139.609 22.3041 140.133 18.8014C140.157 18.6584 140.276 18.4202 140.538 18.4202H180.808ZM180.808 11.2717H140.538C136.726 11.2717 133.604 14.0834 133.056 17.753H85.3285C79.7289 17.753 75.2016 22.2803 75.2016 27.8799V39.8178H50.7778L13.2008 121.477L29.4039 296.089H275.763L291.966 121.477L254.389 39.794H230.346V27.8799C230.346 22.2803 225.819 17.753 220.22 17.753H188.29C188.028 15.9546 187.128 14.3105 185.754 13.1206C184.381 11.9307 182.625 11.2745 180.808 11.2717Z" fill="#EEEEEE"/>
<g clip-path="url(#clip0)">
<path d="M186.501 152.087L151.06 187.53C139.247 175.721 127.43 163.9 115.615 152.087C101.947 138.419 80.7613 159.613 94.4177 173.285C106.235 185.09 118.055 196.913 129.859 208.726C118.05 220.544 106.236 232.358 94.4177 244.167C80.7613 257.831 101.949 279.019 115.615 265.364C127.428 253.547 139.245 241.728 151.058 229.919L186.499 265.364C200.167 279.028 221.359 257.832 207.697 244.167C195.88 232.35 184.067 220.537 172.246 208.722C184.065 196.905 195.878 185.088 207.697 173.273C221.361 159.613 200.169 138.419 186.499 152.095" fill="#EC1C24"/>
</g>
</g>
<defs>
<linearGradient id="paint0_linear" x1="152.097" y1="67.9088" x2="152.097" y2="206.362" gradientUnits="userSpaceOnUse">
<stop offset="0.008" stop-color="#FFF59D"/>
<stop offset="0.165" stop-color="#FFF297"/>
<stop offset="0.371" stop-color="#FEEB87"/>
<stop offset="0.603" stop-color="#FDDE6C"/>
<stop offset="0.853" stop-color="#FCCC47"/>
<stop offset="1" stop-color="#FBC02D"/>
</linearGradient>
<linearGradient id="paint1_linear" x1="152.412" y1="122.93" x2="152.412" y2="292.967" gradientUnits="userSpaceOnUse">
<stop offset="0.008" stop-color="#757575"/>
<stop offset="1" stop-color="#424242"/>
</linearGradient>
<clipPath id="clip0">
<rect width="122" height="122" fill="white" transform="translate(89.06 145.72)"/>
</clipPath>
</defs>
</svg>
