<svg width="120" height="120" viewBox="0 0 120 120" fill="none" xmlns="http://www.w3.org/2000/svg">
<path d="M73.999 40.0002L79.999 46.0002L45.999 80.0002L39.999 74.0002L73.999 40.0002ZM19.999 20.0002H99.999C105.549 20.0002 109.999 24.4502 109.999 30.0002V50.0002C107.347 50.0002 104.803 51.0538 102.928 52.9292C101.053 54.8045 99.999 57.3481 99.999 60.0002C99.999 62.6524 101.053 65.1959 102.928 67.0713C104.803 68.9467 107.347 70.0002 109.999 70.0002V90.0002C109.999 95.5502 105.549 100 99.999 100H19.999C17.3469 100 14.8033 98.9467 12.928 97.0713C11.0526 95.1959 9.99902 92.6524 9.99902 90.0002V70.0002C15.549 70.0002 19.999 65.5502 19.999 60.0002C19.999 57.3481 18.9455 54.8045 17.0701 52.9292C15.1947 51.0538 12.6512 50.0002 9.99902 50.0002V30.0002C9.99902 27.3481 11.0526 24.8045 12.928 22.9292C14.8033 21.0538 17.3469 20.0002 19.999 20.0002ZM19.999 30.0002V42.7002C23.0374 44.4522 25.5608 46.9735 27.3153 50.0105C29.0698 53.0474 29.9935 56.4929 29.9935 60.0002C29.9935 63.5076 29.0698 66.953 27.3153 69.99C25.5608 73.0269 23.0374 75.5482 19.999 77.3002V90.0002H99.999V77.3002C96.9606 75.5482 94.4372 73.0269 92.6827 69.99C90.9283 66.953 90.0045 63.5076 90.0045 60.0002C90.0045 56.4929 90.9283 53.0474 92.6827 50.0105C94.4372 46.9735 96.9606 44.4522 99.999 42.7002V30.0002H19.999ZM47.499 40.0002C51.649 40.0002 54.999 43.3502 54.999 47.5002C54.999 51.6502 51.649 55.0002 47.499 55.0002C43.349 55.0002 39.999 51.6502 39.999 47.5002C39.999 43.3502 43.349 40.0002 47.499 40.0002ZM72.499 65.0002C76.649 65.0002 79.999 68.3502 79.999 72.5002C79.999 76.6502 76.649 80.0002 72.499 80.0002C68.349 80.0002 64.999 76.6502 64.999 72.5002C64.999 68.3502 68.349 65.0002 72.499 65.0002Z" fill="#006400"/>
</svg>
