<svg width="17" height="15" viewBox="0 0 17 15" fill="none" xmlns="http://www.w3.org/2000/svg">
<path fill-rule="evenodd" clip-rule="evenodd" d="M11.5006 14.0009C11.6332 14.0009 11.7604 13.9482 11.8542 13.8544C11.948 13.7607 12.0006 13.6335 12.0006 13.5009V1.70789L15.1466 4.85489C15.2405 4.94878 15.3679 5.00153 15.5006 5.00153C15.6334 5.00153 15.7607 4.94878 15.8546 4.85489C15.9485 4.76101 16.0013 4.63367 16.0013 4.50089C16.0013 4.36812 15.9485 4.24078 15.8546 4.14689L11.8546 0.146894C11.8082 0.100331 11.753 0.0633877 11.6923 0.0381812C11.6315 0.0129748 11.5664 0 11.5006 0C11.4349 0 11.3697 0.0129748 11.309 0.0381812C11.2483 0.0633877 11.1931 0.100331 11.1466 0.146894L7.14663 4.14689C7.05274 4.24078 7 4.36812 7 4.50089C7 4.63367 7.05274 4.76101 7.14663 4.85489C7.24052 4.94878 7.36786 5.00153 7.50063 5.00153C7.63341 5.00153 7.76075 4.94878 7.85463 4.85489L11.0006 1.70789V13.5009C11.0006 13.6335 11.0533 13.7607 11.1471 13.8544C11.2408 13.9482 11.368 14.0009 11.5006 14.0009ZM4.50063 0.000893772C4.63324 0.000893772 4.76042 0.0535722 4.85419 0.14734C4.94795 0.241109 5.00063 0.368286 5.00063 0.500894V12.2939L8.14663 9.14689C8.24052 9.05301 8.36786 9.00026 8.50063 9.00026C8.63341 9.00026 8.76075 9.05301 8.85463 9.14689C8.94852 9.24078 9.00126 9.36812 9.00126 9.50089C9.00126 9.63367 8.94852 9.76101 8.85463 9.85489L4.85463 13.8549C4.80819 13.9015 4.75301 13.9384 4.69227 13.9636C4.63152 13.9888 4.5664 14.0018 4.50063 14.0018C4.43486 14.0018 4.36974 13.9888 4.309 13.9636C4.24825 13.9384 4.19308 13.9015 4.14663 13.8549L0.146632 9.85489C0.052745 9.76101 -3.1283e-09 9.63367 0 9.50089C3.1283e-09 9.36812 0.052745 9.24078 0.146632 9.14689C0.240518 9.05301 0.367856 9.00026 0.500632 9.00026C0.633407 9.00026 0.760745 9.05301 0.854632 9.14689L4.00063 12.2939V0.500894C4.00063 0.368286 4.05331 0.241109 4.14708 0.14734C4.24085 0.0535722 4.36802 0.000893772 4.50063 0.000893772Z" fill="#006400"/>
</svg>
