<svg width="20" height="20" viewBox="0 0 20 20" fill="none" xmlns="http://www.w3.org/2000/svg">
<path d="M9.99993 1.60718C13.8464 1.60718 16.9642 4.72503 16.9642 8.57146C16.9642 11.5143 14.8964 14.7215 10.8142 18.2272C10.5872 18.4222 10.2978 18.5293 9.99859 18.529C9.69936 18.5287 9.41014 18.4211 9.1835 18.2257L8.9135 17.9915C5.01207 14.5772 3.03564 11.4486 3.03564 8.57146C3.03564 4.72503 6.1535 1.60718 9.99993 1.60718ZM9.99993 5.89289C9.28953 5.89289 8.60822 6.1751 8.10589 6.67743C7.60356 7.17976 7.32136 7.86106 7.32136 8.57146C7.32136 9.28187 7.60356 9.96317 8.10589 10.4655C8.60822 10.9678 9.28953 11.25 9.99993 11.25C10.7103 11.25 11.3916 10.9678 11.894 10.4655C12.3963 9.96317 12.6785 9.28187 12.6785 8.57146C12.6785 7.86106 12.3963 7.17976 11.894 6.67743C11.3916 6.1751 10.7103 5.89289 9.99993 5.89289Z" fill="white"/>
</svg>
