<svg width="120" height="120" viewBox="0 0 120 120" fill="none" xmlns="http://www.w3.org/2000/svg">
<path d="M60 25C37.945 25 20 42.945 20 65C20 87.055 37.945 105 60 105C82.055 105 100 87.055 100 65C100 42.945 82.055 25 60 25ZM60 95C43.455 95 30 81.545 30 65C30 48.455 43.455 35 60 35C76.545 35 90 48.455 90 65C90 81.545 76.545 95 60 95Z" fill="#006400"/>
<path d="M55 45H65V70H55V45ZM45 10H75V20H45V10Z" fill="#006400"/>
<path d="M96.4648 38.5348L86.4648 28.5348L93.5349 21.4648L103.535 31.4648L96.4648 38.5348Z" fill="#006400"/>
</svg>
